<svg version="1.1" xmlns="http://www.w3.org/2000/svg" xmlns:xlink="http://www.w3.org/1999/xlink" width="127.4584" height="127.4584" viewBox="0,0,127.4584,127.4584"><g transform="translate(-176.2708,-116.2708)"><g data-paper-data="{&quot;isPaintingLayer&quot;:true}" fill-rule="nonzero" stroke-linecap="butt" stroke-linejoin="miter" stroke-miterlimit="10" stroke-dasharray="" stroke-dashoffset="0" style="mix-blend-mode: normal"><path d="M178.7708,232.79457c0,-24.38518 0,-94.04253 0,-106.73173c0,-3.88402 3.87323,-7.29204 8.17159,-7.29204c13.2304,0 82.10115,0 106.06047,0c5.15114,0 8.22634,3.76234 8.22634,7.96331c0,13.20109 0,83.15658 0,106.73173c0,4.87213 -3.7238,7.76336 -7.89071,7.76336c-13.08504,0 -82.4132,0 -106.39609,0c-5.11853,0 -8.17159,-3.15703 -8.17159,-8.43463z" fill="#ff55af" stroke="#ff9595" stroke-width="5"/><path d="M213.19054,145.95246c9.31622,-6.88708 26.01143,9.70337 26.01143,9.70337c0,0 18.76628,-15.39389 28.48147,-8.21186c4.51672,3.33902 10.3392,16.77258 3.48404,30.85177c-8.84938,18.17492 -31.73928,37.42574 -31.73928,37.42574c0,0 -22.73736,-19.57793 -31.05048,-38.11189c-6.47115,-14.42731 0.16614,-28.22204 4.81283,-31.65713z" fill="#ff0000" stroke="#ff007b" stroke-width="10"/><path d="M213.19053,145.95246c9.31621,-6.88708 26.01143,9.70337 26.01143,9.70337c0,0 18.76627,-15.39389 28.48147,-8.21186c4.51672,3.33902 10.33921,16.77258 3.48404,30.85177c-8.84939,18.17492 -31.73928,37.42574 -31.73928,37.42574c0,0 -22.73735,-19.57793 -31.05048,-38.11189c-6.47115,-14.42731 0.16614,-28.22204 4.81282,-31.65713z" fill="#ff0000" stroke="none" stroke-width="0"/></g></g></svg>