<svg version="1.1" xmlns="http://www.w3.org/2000/svg" xmlns:xlink="http://www.w3.org/1999/xlink" width="127.4584" height="127.4584" viewBox="0,0,127.4584,127.4584"><defs><radialGradient cx="251.19077" cy="207.30311" r="30.1927" gradientUnits="userSpaceOnUse" id="color-1"><stop offset="0" stop-color="#a34141"/><stop offset="1" stop-color="#9e3131"/></radialGradient><radialGradient cx="253.90706" cy="209.56669" r="30.2821" gradientUnits="userSpaceOnUse" id="color-2"><stop offset="0" stop-color="#973c3c"/><stop offset="1" stop-color="#862929"/></radialGradient><linearGradient x1="221.75873" y1="153.49578" x2="221.75873" y2="197.0615" gradientUnits="userSpaceOnUse" id="color-3"><stop offset="0" stop-color="#6dcf2a"/><stop offset="1" stop-color="#2c8b1c"/></linearGradient><linearGradient x1="238.42676" y1="147.98113" x2="238.42676" y2="196.78577" gradientUnits="userSpaceOnUse" id="color-4"><stop offset="0" stop-color="#6dcf2a"/><stop offset="1" stop-color="#2c8b1c"/></linearGradient><linearGradient x1="270.69997" y1="179.03081" x2="248.24223" y2="195.4143" gradientUnits="userSpaceOnUse" id="color-5"><stop offset="0" stop-color="#6dcf2a"/><stop offset="1" stop-color="#2c8b1c"/></linearGradient><linearGradient x1="253.44273" y1="147.86742" x2="253.44273" y2="197.22916" gradientUnits="userSpaceOnUse" id="color-6"><stop offset="0" stop-color="#6dcf2a"/><stop offset="1" stop-color="#2c8b1c"/></linearGradient><linearGradient x1="242.77981" y1="147.15393" x2="242.77981" y2="201.19749" gradientUnits="userSpaceOnUse" id="color-7"><stop offset="0" stop-color="#6dcf2a"/><stop offset="1" stop-color="#2c8b1c"/></linearGradient><linearGradient x1="230.89876" y1="173.29024" x2="238.01065" y2="201.21543" gradientUnits="userSpaceOnUse" id="color-8"><stop offset="0" stop-color="#6dcf2a"/><stop offset="1" stop-color="#2c8b1c"/></linearGradient><linearGradient x1="215.28976" y1="184.44825" x2="226.81179" y2="201.40752" gradientUnits="userSpaceOnUse" id="color-9"><stop offset="0" stop-color="#6dcf2a"/><stop offset="1" stop-color="#2c8b1c"/></linearGradient><linearGradient x1="219.49494" y1="148.30695" x2="231.01697" y2="201.30801" gradientUnits="userSpaceOnUse" id="color-10"><stop offset="0" stop-color="#6dcf2a"/><stop offset="1" stop-color="#2c8b1c"/></linearGradient></defs><g transform="translate(-176.2708,-116.2708)"><g data-paper-data="{&quot;isPaintingLayer&quot;:true}" fill-rule="nonzero" stroke-linejoin="miter" stroke-miterlimit="10" stroke-dasharray="" stroke-dashoffset="0" style="mix-blend-mode: normal"><path d="M178.7708,232.79457c0,-24.38518 0,-94.04253 0,-106.73173c0,-3.88402 3.87323,-7.29204 8.17159,-7.29204c13.2304,0 82.10115,0 106.06047,0c5.15114,0 8.22634,3.76234 8.22634,7.96331c0,13.20109 0,83.15658 0,106.73173c0,4.87213 -3.7238,7.76336 -7.89071,7.76336c-13.08504,0 -82.4132,0 -106.39609,0c-5.11853,0 -8.17159,-3.15703 -8.17159,-8.43463z" fill="#197482" stroke="#d9b1e0" stroke-width="5" stroke-linecap="butt"/><path d="M209.34328,198.22407c0,-16.67497 60.3854,-16.67497 60.3854,0c0,8.4071 -3.4361,16.28739 -8.98053,21.76162c-5.45261,5.38358 -36.44991,5.33488 -41.84834,0.2782c-5.88146,-5.50914 -9.55653,-13.3453 -9.55653,-22.03982z" fill="url(#color-1)" stroke="none" stroke-width="NaN" stroke-linecap="butt"/><path d="M209.36343,198.54603c0,0 -4.33762,11.46874 29.90588,11.46874c31.22908,0 30.47952,-11.46874 30.47952,-11.46874c0,0 -0.379,5.37301 -2.39448,10.98418c-1.49361,4.15829 -4.22611,8.44737 -6.58605,10.77743c-5.45261,5.38358 -36.44991,5.33489 -41.84834,0.27821c-2.47251,-2.31599 -5.76234,-6.73071 -7.34587,-10.89535c-2.18328,-5.74195 -2.21067,-11.14447 -2.21067,-11.14447z" fill="url(#color-2)" stroke="none" stroke-width="NaN" stroke-linecap="butt"/><path d="M214.85793,199.60273c0,-6.16745 12.81035,-11.16716 23.85085,-11.16716c11.0405,0 24.40232,4.44824 24.40232,10.61569c0,6.16745 -13.36182,7.03118 -24.40232,7.03118c-11.0405,0 -23.85085,-0.31226 -23.85085,-6.47971z" fill="#481d1d" stroke="none" stroke-width="0" stroke-linecap="butt"/><path d="M221.03221,197.66512l-8.78625,-44.16934l16.76197,43.01981c0,0 -0.9572,2.09214 -4.37366,2.20467c-3.73231,0.12293 -3.60206,-1.05514 -3.60206,-1.05514z" fill="url(#color-3)" stroke="#000000" stroke-width="0" stroke-linecap="round"/><path d="M233.4073,196.23431l-0.50194,-48.25318l11.04277,48.80465c0,0 0.44818,1.12768 -5.78393,0.90464c-6.06158,-0.21694 -4.75691,-1.45611 -4.75691,-1.45611z" fill="url(#color-4)" stroke="#000000" stroke-width="0" stroke-linecap="round"/><path d="M247.30852,195.47694l15.24001,-18.59823l-7.81308,19.97029c0,0 -1.8987,0.57023 -4.88426,-0.16037c-3.26157,-0.79814 -2.54267,-1.2117 -2.54267,-1.2117z" fill="url(#color-5)" stroke="#000000" stroke-width="0" stroke-linecap="round"/><path d="M244.36686,196.21139l18.15175,-48.34397l-9.66142,49.36175c0,0 -0.28316,1.29337 -4.47156,0.89011c-3.96769,-0.382 -4.01877,-1.90788 -4.01877,-1.90788z" fill="url(#color-6)" stroke="#000000" stroke-width="0" stroke-linecap="round"/><path d="M237.20348,200.09456l10.3835,-52.94063l0.76915,54.04356c0,0 0.4268,1.78447 -6.77235,0.77166c-5.14093,-0.72325 -4.38031,-1.87458 -4.38031,-1.87458z" fill="url(#color-7)" stroke="#000000" stroke-width="0" stroke-linecap="round"/><path d="M233.58203,200.34024c0,0 0.19397,-5.14781 0.3212,-8.52392c0.18622,-4.94178 3.71388,-17.38751 3.71388,-17.38751l5.32677,27.19808c0,0 1.51306,1.25312 -4.15028,0.33565c-4.04421,-0.65517 -5.21158,-1.6223 -5.21158,-1.6223z" fill="url(#color-8)" stroke="#000000" stroke-width="0" stroke-linecap="round"/><path d="M222.3,201.31148c0,0 -0.6387,-3.28215 -1.05757,-5.43471c-0.61313,-3.15079 0.86136,-11.40266 0.86136,-11.40266l9.64302,16.68334c0,0 1.69534,0.63742 -4.04183,0.64243c-4.09692,0.00358 -5.40498,-0.48839 -5.40498,-0.48839z" fill="url(#color-9)" stroke="#000000" stroke-width="0" stroke-linecap="round"/><path d="M226.50518,201.00787c0,0 -0.6387,-10.25736 -1.05758,-16.98452c-0.61313,-9.84683 0.86137,-35.63558 0.86137,-35.63558l9.64302,52.13874c0,0 1.69533,1.99204 -4.04184,2.0077c-4.09692,0.01119 -5.40497,-1.52634 -5.40497,-1.52634z" fill="url(#color-10)" stroke="#000000" stroke-width="0" stroke-linecap="round"/></g></g></svg>