<svg version="1.1" xmlns="http://www.w3.org/2000/svg" xmlns:xlink="http://www.w3.org/1999/xlink" width="127.4584" height="127.4584" viewBox="0,0,127.4584,127.4584"><g transform="translate(-176.2708,-116.2708)"><g data-paper-data="{&quot;isPaintingLayer&quot;:true}" fill-rule="nonzero" stroke-linecap="butt" stroke-linejoin="miter" stroke-miterlimit="10" stroke-dasharray="" stroke-dashoffset="0" style="mix-blend-mode: normal"><path d="M178.7708,232.79457c0,-24.38518 0,-94.04253 0,-106.73173c0,-3.88402 3.87323,-7.29204 8.17159,-7.29204c13.2304,0 82.10115,0 106.06047,0c5.15114,0 8.22634,3.76234 8.22634,7.96331c0,13.20109 0,83.15658 0,106.73173c0,4.87213 -3.7238,7.76336 -7.89071,7.76336c-13.08504,0 -82.4132,0 -106.39609,0c-5.11853,0 -8.17159,-3.15703 -8.17159,-8.43463z" fill="#36baf6" stroke="#ffffff" stroke-width="5"/><path d="M214.49591,205.50409v-51.00818h51.00818v51.00818z" fill="#f5fcff" stroke="none" stroke-width="0"/><path d="M196.82407,180l43.17593,-43.17593l43.17593,43.17593l-43.17593,43.17593z" fill="#ffffff" stroke="none" stroke-width="0"/></g></g></svg>