<svg version="1.1" xmlns="http://www.w3.org/2000/svg" xmlns:xlink="http://www.w3.org/1999/xlink" width="127.4584" height="127.4584" viewBox="0,0,127.4584,127.4584"><g transform="translate(-176.2708,-116.2708)"><g data-paper-data="{&quot;isPaintingLayer&quot;:true}" fill-rule="nonzero" stroke-linecap="butt" stroke-linejoin="miter" stroke-miterlimit="10" stroke-dasharray="" stroke-dashoffset="0" style="mix-blend-mode: normal"><path d="M178.7708,232.79457c0,-24.38518 0,-94.04253 0,-106.73173c0,-3.88402 3.87323,-7.29204 8.17159,-7.29204c13.2304,0 82.10115,0 106.06047,0c5.15114,0 8.22634,3.76234 8.22634,7.96331c0,13.20109 0,83.15658 0,106.73173c0,4.87213 -3.7238,7.76336 -7.89071,7.76336c-13.08504,0 -82.4132,0 -106.39609,0c-5.11853,0 -8.17159,-3.15703 -8.17159,-8.43463z" fill="#264f11" stroke="#2aaf00" stroke-width="5"/><path d="M229.94564,225.5324v-32.90521h21.32744v32.90521z" fill="#6d0000" stroke="none" stroke-width="0"/><path d="M224.46143,230.40724c0,0 2.43742,-8.98919 2.43742,-13.40583c0,-4.3151 -2.43742,-12.79646 -2.43742,-12.79646c0,0 8.94391,8.3483 11.3073,12.91508c1.7768,3.43331 1.62212,12.0685 1.62212,12.0685z" fill="#4b9d21" stroke="none" stroke-width="0"/><path d="M232.3204,232.782c0,0 2.43742,-6.55176 2.43742,-10.9684c0,-4.3151 3.04677,-10.35905 3.04677,-10.35905c0,0 3.45972,6.52024 5.82311,11.08702c1.7768,3.43331 1.62212,9.02172 1.62212,9.02172z" fill="#4b9d21" stroke="none" stroke-width="0"/><path d="M242.61677,230.89126c0,0 1.2187,-4.72369 1.2187,-9.14033c0,-4.3151 9.14034,-15.84325 9.14034,-15.84325c0,0 2.241,13.22315 4.60438,17.78994c1.7768,3.43331 -2.03402,5.97493 -2.03402,5.97493z" fill="#4b9d21" stroke="none" stroke-width="0"/><path d="M208.61819,198.72075l16.4526,-21.9368l28.40327,0.21126l17.90775,21.11619z" fill="#63d729" stroke="none" stroke-width="0"/><path d="M213.43037,179.1587l13.25349,-17.67131l22.88041,0.17018l14.42569,17.01026z" fill="#63d729" stroke="none" stroke-width="0"/><path d="M218.8519,162.25298l10.21854,-13.62472l17.64097,0.13121l11.12232,13.11504z" fill="#63d729" stroke="none" stroke-width="0"/><path d="M223.66409,149.61274l7.64061,-10.18748l13.19051,0.09811l8.31638,9.80638z" fill="#63d729" stroke="none" stroke-width="0"/><path d="M225.42949,140.53398l12.07925,-13.31597l12.19341,13.08032z" fill="#63d729" stroke="none" stroke-width="0"/></g></g></svg>