<svg version="1.1" xmlns="http://www.w3.org/2000/svg" xmlns:xlink="http://www.w3.org/1999/xlink" width="127.4584" height="127.4584" viewBox="0,0,127.4584,127.4584"><g transform="translate(-176.2708,-116.2708)"><g data-paper-data="{&quot;isPaintingLayer&quot;:true}" fill-rule="nonzero" stroke-linejoin="miter" stroke-miterlimit="10" stroke-dasharray="" stroke-dashoffset="0" style="mix-blend-mode: normal"><path d="M178.7708,232.79457c0,-24.38518 0,-94.04253 0,-106.73173c0,-3.88402 3.87323,-7.29204 8.17159,-7.29204c13.2304,0 82.10115,0 106.06047,0c5.15114,0 8.22634,3.76234 8.22634,7.96331c0,13.20109 0,83.15658 0,106.73173c0,4.87213 -3.7238,7.76336 -7.89071,7.76336c-13.08504,0 -82.4132,0 -106.39609,0c-5.11853,0 -8.17159,-3.15703 -8.17159,-8.43463z" fill="#826a19" stroke="#fff5bf" stroke-width="5" stroke-linecap="butt"/><path d="M238.5008,153.89967c0,0 -1.13595,5.50722 -0.62545,9.03583c0.49135,3.39628 3.00355,8.48487 3.62436,13.95453c0.72281,6.3683 -0.4744,13.25317 -0.42845,18.58508c0.13092,15.19263 -0.91051,30.69062 -0.91051,30.69062" fill="none" stroke="#fff8c3" stroke-width="5" stroke-linecap="round"/><g fill="#fff8c3" stroke="none" stroke-width="0" stroke-linecap="butt"><path d="M232.43363,148.69651c2.68505,4.70313 3.44558,9.32425 1.6987,10.32155c-1.74687,0.9973 -5.33966,-2.00687 -8.02471,-6.70999c-2.68504,-4.70313 -1.6987,-10.32155 -1.6987,-10.32155c0,0 5.33965,2.00687 8.0247,6.70999z" data-paper-data="{&quot;index&quot;:null}"/><path d="M227.62884,149.8599c4.63604,2.79928 7.55143,6.46447 6.5117,8.18643c-1.03973,1.72196 -5.64086,0.84862 -10.27691,-1.95066c-4.63604,-2.79928 -6.5117,-8.18643 -6.5117,-8.18643c0,0 5.64086,-0.84862 10.27691,1.95066z" data-paper-data="{&quot;index&quot;:null}"/><path d="M223.84383,155.59565c5.09751,-1.82873 9.78049,-1.77633 10.45973,0.11703c0.67925,1.89336 -2.90247,4.91072 -7.99998,6.73945c-5.09751,1.82873 -10.45974,-0.11703 -10.45974,-0.11703c0,0 2.90248,-4.91072 7.99999,-6.73945z" data-paper-data="{&quot;index&quot;:null}"/></g><g fill="#fff8c3" stroke="none" stroke-width="0" stroke-linecap="butt"><path d="M255.08574,142.27799c0,0 0.51675,5.68088 -2.54927,10.145c-3.06602,4.46412 -6.89569,7.15982 -8.5538,6.02101c-1.6581,-1.13881 -0.51675,-5.68088 2.54927,-10.145c3.06603,-4.46412 8.55379,-6.02101 8.55379,-6.02101z"/><path d="M261.44084,147.73819c0,0 -1.87566,5.38715 -6.5117,8.18643c-4.63604,2.79928 -9.23718,3.67261 -10.27691,1.95065c-1.03973,-1.72196 1.87566,-5.38715 6.5117,-8.18643c4.63605,-2.79928 10.27691,-1.95066 10.27691,-1.95066z"/><path d="M263.47985,159.88213c0,0 -4.74823,3.1613 -10.13393,2.59293c-5.38571,-0.56837 -9.58055,-2.65078 -9.36944,-4.65118c0.21111,-2.00041 4.74822,-3.16129 10.13393,-2.59292c5.38571,0.56837 9.36944,4.65118 9.36944,4.65118z"/></g><g fill="#fff8c3" stroke="none" stroke-width="0" stroke-linecap="butt"><path d="M227.87737,165.63279c4.10913,3.52759 6.37808,7.62454 5.06784,9.15079c-1.31025,1.52625 -5.70353,-0.09616 -9.81266,-3.62375c-4.10914,-3.52759 -5.06783,-9.15079 -5.06783,-9.15079c0,0 5.70353,0.09616 9.81266,3.62375z" data-paper-data="{&quot;index&quot;:null}"/><path d="M224.56142,168.05333c3.9813,3.67125 6.10336,7.84617 4.73976,9.32494c-1.36361,1.47877 -5.69652,-0.29858 -9.67782,-3.96983c-3.98131,-3.67125 -4.73977,-9.32494 -4.73977,-9.32494c0,0 5.69652,0.29859 9.67783,3.96983z" data-paper-data="{&quot;index&quot;:null}"/><path d="M221.4878,173.15091c5.41031,0.23959 9.72409,2.06286 9.63511,4.07241c-0.08898,2.00955 -4.54705,3.44439 -9.95736,3.2048c-5.41031,-0.23959 -9.63511,-4.07241 -9.63511,-4.07241c0,0 4.54706,-3.44438 9.95737,-3.2048z" data-paper-data="{&quot;index&quot;:null}"/></g><g fill="#fff8c3" stroke="none" stroke-width="0" stroke-linecap="butt"><path d="M226.39568,183.20365c3.06603,3.60292 4.20738,7.26876 2.54928,8.18788c-1.6581,0.91912 -5.48777,-1.25654 -8.5538,-4.85946c-3.06602,-3.60292 -2.54927,-8.18788 -2.54927,-8.18788c0,0 5.48776,1.25654 8.55379,4.85947z" data-paper-data="{&quot;index&quot;:null}"/><path d="M220.91107,182.43514c4.18333,2.79928 6.81403,6.46447 5.87583,8.18643c-0.9382,1.72196 -5.09004,0.84862 -9.27337,-1.95066c-4.18333,-2.79928 -5.87583,-8.18643 -5.87583,-8.18643c0,0 5.09004,-0.84862 9.27337,1.95066z" data-paper-data="{&quot;index&quot;:null}"/><path d="M220.47717,185.71368c5.38571,-0.56837 9.92282,0.59252 10.13393,2.59293c0.21111,2.00041 -3.98373,4.08282 -9.36944,4.65118c-5.38571,0.56837 -10.13393,-2.59293 -10.13393,-2.59293c0,0 3.98374,-4.08281 9.36944,-4.65118z" data-paper-data="{&quot;index&quot;:null}"/></g><g fill="#fff8c3" stroke="none" stroke-width="0" stroke-linecap="butt"><path d="M261.95074,160.58367c0,0 -0.22805,5.69977 -3.84975,9.72621c-3.62169,4.02644 -7.77003,6.20002 -9.26556,4.85482c-1.49553,-1.3452 0.22805,-5.69978 3.84975,-9.72622c3.62169,-4.02644 9.26556,-4.85482 9.26556,-4.85482z"/><path d="M266.53129,164.29739c0,0 -1.87565,5.38716 -6.5117,8.18644c-4.63604,2.79928 -9.23718,3.67261 -10.27691,1.95065c-1.03973,-1.72196 1.87566,-5.38714 6.5117,-8.18642c4.63604,-2.79928 10.2769,-1.95067 10.2769,-1.95067z"/><path d="M262.68503,175.53591c0,0 -3.46287,3.1613 -7.39066,2.59293c-3.92778,-0.56837 -6.98708,-2.65078 -6.83311,-4.65119c0.15396,-2.00041 3.46287,-3.16129 7.39066,-2.59293c3.92778,0.56837 6.83312,4.65118 6.83312,4.65118z"/></g><g fill="#fff8c3" stroke="none" stroke-width="0" stroke-linecap="butt"><path d="M261.56114,175.75865c0,0 0.45132,5.68089 -2.22644,10.14501c-2.67776,4.46412 -6.02246,7.15981 -7.4706,6.021c-1.44813,-1.13881 -0.45131,-5.68088 2.22645,-10.145c2.67776,-4.46412 7.47059,-6.02101 7.47059,-6.02101z"/><path d="M268.69832,184.76556c0,0 -3.71419,4.23198 -8.55727,5.11213c-4.84308,0.88014 -8.86405,0.01836 -8.98108,-1.92484c-0.11703,-1.9432 3.71419,-4.23198 8.55727,-5.11212c4.84308,-0.88014 8.98107,1.92484 8.98107,1.92484z"/><path d="M268.89227,193.3628c0,0 -4.14694,3.1613 -8.85063,2.59293c-4.70369,-0.56837 -8.36732,-2.65078 -8.18295,-4.65118c0.18438,-2.00041 4.14694,-3.16129 8.85063,-2.59293c4.70369,0.56837 8.18295,4.65118 8.18295,4.65118z"/></g><g fill="#fff8c3" stroke="none" stroke-width="0" stroke-linecap="butt"><path d="M233.95945,135.36109c0,0 4.47962,3.53164 5.61198,8.82755c1.13236,5.29591 0.4557,9.93004 -1.51135,10.35063c-1.96705,0.42059 -4.47963,-3.53163 -5.61198,-8.82755c-1.13236,-5.29591 1.51135,-10.35064 1.51135,-10.35064z"/><path d="M239.65523,133.83426c0,0 3.25907,4.68167 2.80248,10.078c-0.45659,5.39633 -2.45159,9.63345 -4.45594,9.46385c-2.00435,-0.16959 -3.25906,-4.68166 -2.80247,-10.078c0.45659,-5.39633 4.45593,-9.46386 4.45593,-9.46386z"/><path d="M246.49335,143.54705c0,0 0.52535,4.65933 -2.24119,7.50482c-2.76654,2.84548 -6.24858,4.09892 -7.77735,2.79961c-1.52876,-1.29931 -0.52536,-4.65933 2.24119,-7.50481c2.76654,-2.84548 7.77735,-2.79961 7.77735,-2.79961z"/></g><path d="M228.53054,188.67675c0,0 7.92398,4.57666 11.92288,4.60165c4.04873,0.02531 12.22185,-4.45075 12.22185,-4.45075" fill="none" stroke="#fff8c3" stroke-width="5" stroke-linecap="round"/><path d="M229.13416,174.64262c0,0 7.55813,3.43431 11.025,3.33665c3.66494,-0.10324 10.40345,-3.94027 10.40345,-3.94027" fill="none" stroke="#fff8c3" stroke-width="5" stroke-linecap="round"/><path d="M232.15225,157.74131c0,0 5.94045,3.42608 8.30289,3.47743c2.26083,0.04915 5.58033,-3.17562 5.58033,-3.17562" fill="none" stroke="#fff8c3" stroke-width="5" stroke-linecap="round"/></g></g></svg>