<svg version="1.1" xmlns="http://www.w3.org/2000/svg" xmlns:xlink="http://www.w3.org/1999/xlink" width="127.64732" height="105.67834" viewBox="0,0,127.64732,105.67834"><g transform="translate(-176.02067,-129.89494)"><g data-paper-data="{&quot;isPaintingLayer&quot;:true}" fill-rule="nonzero" stroke-linejoin="miter" stroke-miterlimit="10" stroke-dasharray="" stroke-dashoffset="0" style="mix-blend-mode: normal"><path d="M176.02067,171.74962c0,-35.24883 27.4385,-41.85468 62.68733,-41.85468c35.24883,0 64.95998,6.60585 64.95998,41.85468c0,35.24883 -28.57482,63.82366 -63.82366,63.82366c-35.24883,0 -63.82366,-28.57482 -63.82366,-63.82366z" fill="#847890" stroke="none" stroke-width="0" stroke-linecap="butt"/><path d="M224.72215,185.70388c-2.55413,4.32237 -16.37903,0.67398 -23.40288,-3.47648c-7.02385,-4.15046 -10.64728,-11.01905 -8.09315,-15.34142c2.55413,-4.32237 10.31862,-4.46173 17.34247,-0.31128c7.02385,4.15046 16.70769,14.8068 14.15356,19.12917z" fill="#a9b2a2" stroke="#000000" stroke-width="2.5" stroke-linecap="butt"/><path d="M269.87922,165.83983c7.02385,-4.15046 14.78835,-4.0111 17.34248,0.31128c2.55413,4.32237 -1.0693,11.19096 -8.09316,15.34142c-7.02385,4.15046 -20.84875,7.79885 -23.40288,3.47648c-2.55413,-4.32237 7.12971,-14.97872 14.15356,-19.12918z" data-paper-data="{&quot;index&quot;:null}" fill="#a9b2a2" stroke="#000000" stroke-width="2.5" stroke-linecap="butt"/><path d="M229.80678,203.18798c0,-2.30111 1.86542,-4.16653 4.16653,-4.16653c2.30111,0 4.16653,1.86542 4.16653,4.16653c0,2.30111 -1.86542,4.16653 -4.16653,4.16653c-2.30111,0 -4.16653,-1.86542 -4.16653,-4.16653z" fill="#000000" stroke="none" stroke-width="0" stroke-linecap="butt"/><path d="M241.5715,202.45311c0,-2.30111 1.86542,-4.16653 4.16653,-4.16653c2.30111,0 4.16653,1.86542 4.16653,4.16653c0,2.30111 -1.86542,4.16653 -4.16653,4.16653c-2.30111,0 -4.16653,-1.86542 -4.16653,-4.16653z" fill="#000000" stroke="none" stroke-width="0" stroke-linecap="butt"/><path d="M234.35209,183.87044c0,0 -0.40661,5.11108 -3.01937,8.71968c-1.55182,2.1433 -5.59799,2.77595 -6.10163,4.17736c-1.53015,4.25781 0.40916,11.34459 0.40916,11.34459" fill="none" stroke="#000000" stroke-width="2.5" stroke-linecap="round"/><path d="M244.74078,183.89312c0,0 0.40662,5.11108 3.01937,8.71968c1.55183,2.1433 5.598,2.77595 6.10163,4.17736c1.53015,4.25781 -0.40916,11.34459 -0.40916,11.34459" data-paper-data="{&quot;index&quot;:null}" fill="none" stroke="#000000" stroke-width="2.5" stroke-linecap="round"/><path d="M203.2925,210.38472l49.99835,13.25714" fill="none" stroke="#000000" stroke-width="2.5" stroke-linecap="round"/></g></g></svg>